<svg xmlns="http://www.w3.org/2000/svg" fill-rule="evenodd" stroke-linecap="round" stroke-linejoin="round" stroke-miterlimit="1.5" clip-rule="evenodd" viewBox="0 0 512 512">
  <style>
    .base { fill: #cac8c6; }
    .outline { fill: #111; }
  </style>
  <path class="base" d="M256 5.25l236.003 125.375v250.75L256 506.752 19.996 381.376v-250.75L256 5.25z"/>
  <path class="outline" fill-opacity=".621" d="M461.76 146.552v218.894L256 474.753 50.24 365.446V146.552L256 37.244l205.76 109.308zm-407.536 2.394v214.105L256 470.243 457.777 363.05V148.946L256 41.755 54.224 148.946z"/>
  <g class="outline">
    <path d="M184.07 377.202h160.643v38.363h-19.181v-19.182h-43.158v19.182h-19.182v-19.182H203.25v19.182h-19.18v-38.363zm112.69-143.86v-38.363h47.953v38.363l-38.363 23.976-81.52 81.521s-76.822-.024-95.907-105.497H296.76zm-153.451-35.965s20.38-100.942 136.907-100.942c0 0 47.234.24 69.292 36.205 0 0-52.787 19.42-64.737 64.737H143.31z"/>
    <path d="M315.94 175.798s36.973-38.363 67.136-38.363v119.883s-57.544 32.973-57.544 57.545h-43.158s3.884-36.08 81.52-76.726v-62.34h-47.953zm-71.93 160.643h81.52v21.28h-81.52z"/>
  </g>
</svg>