<svg xmlns="http://www.w3.org/2000/svg" xmlns:serif="http://www.serif.com/" fill-rule="evenodd" stroke-linecap="round" stroke-linejoin="round" stroke-miterlimit="1.5" clip-rule="evenodd" viewBox="0 0 512 512">
  <style>
    .base { fill: #cac8c6; }
    .outline { fill: #111; }
  </style>
  <path class="base" d="M256 5.25l236.003 125.375v250.75L256 506.752 19.996 381.376v-250.75L256 5.25z"/>
  <path class="outline" fill-opacity=".75" d="M461.76 146.552v218.894L256 474.753 50.24 365.446V146.552L256 37.244l205.76 109.308zm-407.536 2.394v214.105L256 470.243 457.777 363.05V148.946L256 41.755 54.224 148.946z"/>
  <path class="outline" d="M357.018 406.084H154.982v-34.635l71.306-14.431L256 371.448l29.71-14.43 71.308 14.43v34.636zm-86.163-63.497v14.43L256 362.79l-14.856-5.772v-14.431l14.856-8.66 14.855 8.66zm-166.383-57.725h44.567v49.066h-29.71l-14.857-11.545v-37.521zm288.2 49.066H362.96v-49.066h44.567v37.521l-14.856 11.545zm-59.423-11.545H178.75v-37.521h154.5v37.521zm-178.267-37.521h11.884v24.533h-11.884v-24.533zm202.036 24.533h-11.885v-24.533h11.885v24.533zm-252.546-85.144h44.567v49.066h-44.567v-49.066zm303.055 49.066H362.96v-49.066h44.567v49.066zm-191.935-57.725L256 212.706l40.407 2.886 24.957 23.09h11.885v11.545l-26.74 23.09H205.49l-26.74-23.09v-11.545h11.884l24.957-23.09zm-42.784-14.43h20.798v25.975h-20.798v-25.976zm166.383 25.975h-20.798v-25.976h20.798v25.976zm-234.719-25.976h44.567v11.545h-44.567v-11.545zm303.055 11.545H362.96v-11.545h44.567v11.545zm-178.267-83.7h53.48v35.339l20.798 9.166 5.942-6.984h11.884v23.09L306.51 201.16H205.49l-14.856-11.545v-23.09h11.884l5.943 6.985 20.798-9.166v-35.34zm-98.047 49.065l14.855 11.545h-29.711v-37.52h14.856v25.975zm264.43 11.545H365.93l14.856-11.545v-25.976h14.855v37.521zm-38.625-11.545h-11.885l-50.509-49.065v-23.09h59.423l14.855 11.545v46.18l-11.884 14.43zm-139.643-49.065l-50.509 49.065h-11.884l-11.885-14.43v-46.18l14.856-11.545h59.422v23.09z" serif:id="bonus skill"/>
</svg>