<svg xmlns="http://www.w3.org/2000/svg" fill-rule="evenodd" stroke-linejoin="round" stroke-miterlimit="1.414" viewBox="0 0 512 512">
  <style>
    .base { fill: #cac8c6; }
    .outline { fill: #222222; }
  </style>
  <path fill="outline" d="M392.056 398.151v64.256h-246.53v-49.543l25.583-9.42V268.34l12.324-7.393h-2.718l-.013-17.565-6.868 3.674-53.89-35.924V78.373h51.165v-28.78h154.392v12.791h25.78l18.391 27.843v307.924h22.384z"/>
  <path id="base" class="base" d="M374.318 415.89v28.78H163.265v-19.437l25.371-9.344h185.682zm-22.384-15.99H188.847v-79.944h163.087V399.9zm-94.015-51.484h-13.75v27.181s6.13-22.218 13.75-27.18zm-39.333 0h-13.75v27.181s6.13-22.218 13.75-27.18zm117.679 0H313.88v27.181s9.98-22.218 22.385-27.18zm-40.932 0H272.95v27.181s9.98-22.218 22.384-27.18zm56.6-50.845H188.848v-19.186l15.989-9.594h147.098v28.78zm0-54.362H198.44c0-51.932-9.583-83.113-9.593-83.142h163.087v83.142zM166.464 96.111v124.714l-28.78-19.187V96.111h28.78zm116.719 92.736h13.75v27.181s-6.13-22.221-13.75-27.181zm39.332 0h13.75v27.181s-6.13-22.221-13.75-27.181zm-117.678 0h22.384v27.181s-9.98-22.221-22.384-27.181zm40.932 0h22.384v27.181s-9.98-22.221-22.384-27.181zM307.763 67.33v67.154h-30.577V67.33h30.577zm-88.339 0v67.154h-30.577V67.33h30.577zm44.171 0v67.154h-30.58V67.33h30.58zm78.144 12.791l10.195 15.433v38.93h-30.577V80.122h20.382z" />
</svg>