<svg xmlns="http://www.w3.org/2000/svg" fill-rule="evenodd" stroke-linejoin="round" stroke-miterlimit="1.414" clip-rule="evenodd" viewBox="0 0 512 512">
  <style>
    .base { fill: #cac8c6; }
    .outline { fill: #222222; }
  </style>
  <path class="outline" d="M340.08 155.898l-25.99-24.457V57.21h93.832l3.652 1.721c15.778 7.585 30.607 19.05 35.138 36.286.151.574.285 1.152.413 1.733l.409 1.994v91.71h-40.637V308.91l-16.42.726c-2.63.304-5.236 1.608-6.736 3.796l-.064 34.358c.62.07 1.07.134 1.07.134 10.418 1.463 20.2 6.664 26.769 15.02 4.992 6.352 8.037 14.134 9.331 22.06l6.369.2v69.588H84.784v-69.587h6.337c2.876-18.37 16.495-34.434 35.713-37.223.653-.096 1.49-.192 1.49-.192v-34.26c-1.475-2.254-4.02-3.543-6.79-3.894l-16.431-.726V190.654H64.466V98.947l.41-1.997c3.82-17.692 20.3-30.498 35.028-37.766l.525-.256 3.649-1.718h93.832v74.231l-25.99 24.457h28.968v-49.344h110.224v49.344h28.968z"/>
  <path id="base" class="base" d="M409.838 437.413H102.162v-34.831h307.676v34.83zm-31.929-72.565c25.508 0 26.124 26.083 26.124 26.123H107.967s.595-26.123 26.124-26.123h243.818zm-232.208-11.61v-43.54c-6.177-16.843-23.22-17.415-23.22-17.415v-23.22h26.123c12.84 0 20.306-17.387 20.318-17.417h174.156c.023.056 7.489 17.416 20.318 17.416h26.124v23.22s-17.044.573-23.221 17.417v43.538H145.7zm124.812-11.61v-23.222h-29.026v23.221h29.026zm-49.344-23.222h-23.221v23.221h23.22v-23.22zm-43.54 0h-23.22v23.221h23.22v-23.22zm136.423 23.221v-23.22h-23.22v23.22h23.22zm43.539 0v-23.22h-23.22v23.22h23.22zm-211.89-84.175h-23.22V222.62l23.22 11.61v23.222zm243.819 0h-23.221V234.23l23.22-11.61v34.83zm-95.786-133.52v49.344h60.954c17.651 19.83 34.832 17.416 34.832 17.416v17.415c-46.172 0-46.442 26.083-46.442 26.124H168.922s-.235-26.124-46.442-26.124v-17.415s17.18 2.415 34.832-17.416h60.954v-49.344h75.468zm-162.546 49.344H81.844v-72.565c3.083-15.404 26.086-26.106 26.123-26.123h72.565v49.344l-49.344 46.442v2.902zm272.845-98.688c.063.029 23.043 10.728 26.123 26.123v72.565h-49.344v-2.902l-49.344-46.442V74.588h72.565zM122.48 138.445H99.26v23.22h23.22v-23.22zm290.26 23.22v-23.22h-23.22v23.22h23.22zm-290.26-60.954H99.26v23.221h23.22v-23.22zm290.26 23.221v-23.22h-23.22v23.22h23.22z"/>
</svg>