<?xml version="1.0" ?>
<svg height="523" viewBox="0 0 523 523" width="523" xmlns="http://www.w3.org/2000/svg">
  <g>
    <path d="M430.56 93.44v337.12H93.44V93.44z" fill="#979797"/>
    <path d="M98.56 98.56v326.88h326.88V98.56z" fill="#080808"/>
    <path d="M440 440H84V84h356v356zM106.04 106.04v311.92h311.92V106.04H106.04z" fill="#595959"/>
    <path d="M518.48 260L260 518.48 1.52 260 260 1.52z" fill="#595959"/>
    <path d="M260 30.48L30.48 260 260 489.52 489.52 260z" fill="#080808"/>
    <path d="M260 80l180 180-180 180L80 260z" fill="#080808"/>
    <path d="M452 264L264 452 76 264 264 76l188 188zm-362.1 0L264 438.1 438.1 264 264 89.9 89.9 264z" fill="#595959"/>
  </g>
</svg>
