<?xml version="1.0" ?>
<svg height="512" viewBox="0 0 512 512" width="512" xmlns="http://www.w3.org/2000/svg">
  <g>
    <path d="M211.16 56l87.62 70.13v132.55l-87.43 72.07L121 258.8V129.65z" fill="#000000"/>
    <path d="M213.32 88.32l-68.08 54.87v105.94l67.89 53.33 65.45-53.22V139.86z" fill="#AFCCEB"/>
    <path d="M209.54 136.81l40.75 31.86v59.87l-40.55 33.52-40.26-33.54V170.8z" fill="#37609F"/>
    <path d="M209.98 161.05l-20.29 18.81v39.65l20.11 18.31 20.29-18.33v-41.26z" fill="#AFCCEB"/>
    <path d="M335.92 274.18l55.79 51.23v82.14L335.84 456l-57.26-48.37v-82.31z" fill="#000000"/>
    <path d="M294.74 336.12v63.8l38.93 31.84L371.51 400v-63.96l-37.78-33.58z" fill="#AFCCEB"/>
    <path d="M332.93 334.79l22.41 17.47v32.83l-22.3 18.38-22.14-18.39v-31.65z" fill="#37609F"/>
  </g>
</svg>
