<svg xmlns="http://www.w3.org/2000/svg" fill-rule="evenodd" stroke-linejoin="round" stroke-miterlimit="1.414" clip-rule="evenodd" viewBox="0 0 512 512">
  <style>
    .base { fill: #cac8c6; }
    .outline { fill: #222222; }
  </style>
  <path class="outline" d="M137.094 400.136l38.573-9.643v-25.971c-.488-.197-.975-.393-1.462-.593-31.523-13.003-59.375-35.213-75.703-65.498-10.84-20.11-15.92-43.046-16.049-65.906l-.04-19.813h186.724a106.42 106.42 0 0 1 2.117-13.069H119.356l-5.711-5.759-.202-.205c-18.244-19.08-23.874-49.5-8.307-73.585 6.956-10.763 16.89-19.3 27.527-26.234l5.09-3.294h13.02l1.652-3.109c11.946-22.233 31.471-40.63 55.388-49.398a58.6 58.6 0 0 1 4.312-1.413l2.653-.724H332.17c23.432 5.75 45.343 17.636 62.085 34.945 16.128 16.676 28.607 37.295 34.508 59.725l6.213 24.221s-7.358 11.937-9.037 16.112h3.451v94.627l-80.359 80.359v47.093l28.93 12.857v70.217H137.094v-75.942z"/>
  <path id="base" class="base" d="M156.275 415.11l38.572-9.642h135.004l28.929 12.857v38.573h-19.286v-25.715h-18.081v25.715h-19.286v-25.715h-30.135v25.715h-28.93v-25.715h-25.714v25.715h-19.286v-25.715h-22.5v25.715h-19.287V415.11zm93.217-64.286h80.359v41.786H194.847v-16.07c30.702 0 54.616-25.684 54.645-25.715zm-25.715 0h-28.93s-93.216-23.339-93.216-118.932h186.433s-7.05-64.287 45-64.287c0 0 22.214-.142 32.931 18.68 8.207 14.538 5.591 32.781-6.372 44.428-7.973 7.77-21.13 14.541-42.63 14.037l-93.216 106.074zm106.074-12.858h-65.895s34.874-61.343 86.788-80.359c0 0 33.338-9.27 33.75-28.929v-38.572h25.716v67.501l-80.36 80.36zm21.397-131.789l-18.183-18.183-18.183 18.183 18.183 18.184 18.183-18.184zm-76.042-25.714h-147.86s-36.783-36.63 16.072-70.716h199.29s46.79 11.586 67.502 38.572c0 0 3.798 29.667-25.715 28.93 0 0-54.462-65.559-109.289 3.214zm54.645-125.36c64.067 15.604 80.359 80.359 80.359 80.359-35.555-39.42-80.305-38.573-80.36-38.573H169.134c17.85-33.796 48.178-41.778 48.215-41.786h112.503z"/>
</svg>