<svg xmlns="http://www.w3.org/2000/svg" fill-rule="evenodd" stroke-linejoin="round" stroke-miterlimit="1.414" clip-rule="evenodd" viewBox="0 0 512 512">
  <style>
    .base { fill: #cac8c6; }
    .outline { fill: #222222; }
  </style>
  <path class="outline" d="M413.983 272.002l29.198 37.54v72.756c-.061 15.053-6.839 29.95-18.391 39.56-6.935 5.764-15.201 10.017-23.92 12.127l-2.108.488H152.996v-8.708h-57.08l-27.095-16.243V275.616l68.867-16.202 15.308 7.654v-6.676h72.565V138.407h-11.61V77.528h179.885v60.88h-11.61v133.594h31.757z"/>
  <path id="base" class="base" d="M242.939 338.724h23.22v78.37h-23.22v-78.37zm-11.61 78.37h-60.955V277.77h60.955v139.325zM405.485 289.38l20.318 26.124v66.76c0 28.384-28.98 34.82-29.026 34.83h-55.15v-52.246c1.736-19.776 40.637-40.637 40.637-40.637v-34.83h23.22zm-78.37 127.715h-46.442v-84.176s-.587-17.938-17.416-20.318H242.94V277.77h121.91v37.734s-31.55 14.475-37.735 37.733v63.858zm-168.351-8.708h-58.038L86.2 399.679v-11.61h37.733v-14.513H86.2v-20.319h37.733v-14.513H86.2v-11.61h37.733v-14.513H86.2v-23.22l49.344-11.611 23.22 11.61v119.007zm49.344-31.929h-14.513v26.124h14.513v-26.124zm0-37.734h-14.513v26.124h14.513v-26.124zm0-37.733h-14.513v26.123h14.513v-26.123zm34.831-107.397h121.91v60.955h-121.91v-60.955zm121.91-11.61h-121.91V132.64h121.91v49.344zm-13.062-37.734h-15.965v14.513h15.965V144.25zm-71.114 0h-26.124v14.513h26.124V144.25zm37.734 0h-26.124v14.513h26.124V144.25zm-87.078-49.344h145.13v26.123h-145.13V94.906z"/>
</svg>