<?xml version="1.0" ?>
<svg height="512" viewBox="0 0 512 512" width="512" xmlns="http://www.w3.org/2000/svg">
  <g>
    <path d="M458.69 56l-105.2 207.33L460.25 456l-204.49-96.51L52 455.66l104.68-192L52.04 66.85l198.43 98.37z" fill="#000000"/>
    <path d="M105.61 119.05l77.22 145.54-77.22 141.93 150.51-71.19 150.52 71.19-78.48-141.93 78.48-154.98-155.51 81.73z" fill="#996ECF"/>
    <path d="M142.72 154.97l107.85 52.98 106.58-52.98-59.38 109.07 56.5 92.99-100.4-49.42-95.09 48.17 44.5-91.74z" fill="#D7BF76"/>
    <path d="M128.9 279.32L323.67 73.55v98.92l-149.8 154.02z" fill="#000000"/>
    <path d="M150.97 279.28l23.02 24.14 133.68-137.45v-52.24z" fill="#FFFFFF"/>
    <path d="M119.33 243.8l83.18 87.1-37.46 39.04-83.66-87.22z" fill="#000000"/>
    <path d="M119.22 266.31l-15 16.51 63.61 61.84 14.74-16.48z" fill="#C6A582"/>
    <path d="M113.68 302.3l36.45 37.75-55.55 53.65-36.46-37.75z" fill="#000000"/>
    <path d="M93.47 324.04h32.7l0.06 33.96h-16.36v15.53H76.74v-32.97h16.78l-0.05-16.52zm0.25 16.94v16.94h16.13v-16.94H93.72z" fill="#C6A582"/>
  </g>
</svg>
