<?xml version="1.0" ?>
<svg height="512" viewBox="0 0 512 512" width="512" xmlns="http://www.w3.org/2000/svg">
  <g>
    <path d="M214 364c-98.3 0-178-79.7-178-178S115.7 8 214 8s178 79.7 178 178-79.7 178-178 178z" fill="#000000"/>
    <path d="M212 344c86.16 0 156-70.74 156-158S298.16 28 212 28 56 98.74 56 186s69.84 158 156 158z" fill="#747474"/>
    <path d="M92,186a122,122 0 0,1 244,0a122,122 0 0,1 -244,0z" fill="#000000"/>
    <path d="M45.27 38.63l32.91 1.33L82.22 0 396.4 287.68l1.46 4.06c4.47 12.45 1.86 22.75-7.13 34.28-10 12.82-21.81 20.55-35.8 17.2l-3.53-0.85L0 77.94 42.94 65l2.33-26.38z" fill="#000000"/>
    <path d="M360.73 327.79c5.5 1.32 12.16-3.76 17.74-10.97 5.58-7.2 6.67-11.5 4.46-17.68L94.45 32v20.58H59.52v23.8L32 81.6l328.73 246.18z" fill="#A8A8A8"/>
  </g>
</svg>
