<?xml version="1.0" ?>
<svg height="512" viewBox="0 0 512 512" width="512" xmlns="http://www.w3.org/2000/svg">
  <g>
    <path d="M56.02 56h119.8L176 86.57 115.73 140 56 87.05zM196.02 56h119.8L316 86.57 255.73 140 196 87.05zM336.02 56h119.8L456 86.57 395.73 140 336 87.05zM146.51 152.33h213.54l81.24 73.59v77.64L294.14 453.52l-78.94-.04L69.89 303.25v-76.89z" fill="#000000"/>
    <path d="M158.78 175.62h192.45l67 60.7v57.44L288.56 430.23l-63.65-0.04L92.94 293.76v-57.45l65.84-60.69zM72.38 74.74h87.98l-44 38.92-43.98-38.92zm139.1-0.15h89.1l-44.56 38.91-44.55-38.91zm140 0h89.1l-44.56 38.91-44.55-38.91z" fill="#FFFFFF"/>
    <path d="M86.15 274.54v-16h339.22v16z" fill="#000000"/>
    <path d="M176 264.96l70.41 172.92-14.82 6.04L160 268.09V168h16zM334.41 268.96V172h16v100.09l-71.59 175.83-14.82-6.04z" fill="#000000"/>
    <path d="M248.67 158.81l12.17 10.38-86.75 101.67-12.18-10.38z" fill="#000000"/>
    <path d="M266.09 162.81l86.75 101.67-12.17 10.38-86.76-101.67z" fill="#000000"/>
    <path d="M84.07 268.48v30.88l136.88 141.36h69.66l138.63-141.36v-30.88z" fill="#000000"/>
    <path d="M83.13 270.2v30.82l139.45 142.32h69.34l136.81-142.32V270.2h-84.7l-68.78 164.07h-39.61L169.35 270.2z" fill="#000000"/>
    <path d="M169.9 168.01v91.96l86.1-91.96 85.02 91.96v-91.96z" fill="#000000"/>
  </g>
</svg>
