<svg xmlns="http://www.w3.org/2000/svg" fill-rule="evenodd" stroke-linejoin="round" stroke-miterlimit="1.414" clip-rule="evenodd" viewBox="0 0 512 512">
  <style>
    .base { fill: #cac8c6; }
    .outline { fill: #111; }
  </style>
  <path class="outline" d="M417.13 228.39h11.61v46.442h26.123V428.74h-80.678l-47.106-47.106v-92.219h-17.346V428.74H202.267V289.415h-17.346v92.219l-47.106 47.106H57.137V274.832H83.26v-46.441h11.61V83.26h322.26v145.13z"/>
  <path id="base" class="base" d="M218.266 290.832h75.468V412.74h-75.468V290.83zM438.864 412.74h-58.052l-37.734-37.734V279.22h23.22v84.176l26.124 26.123h46.442v23.22zM168.922 279.22v95.786l-37.734 37.734H73.136v-23.22h46.442l26.123-26.123V279.22h23.221zm98.688 121.91v-14.514h-23.22v14.513h23.22zm171.254-23.221H401.13l-23.22-23.221v-14.513h60.954v37.734zM134.09 340.176v14.513l-23.221 23.22H73.136v-37.733h60.955zm133.52 24.382v-14.513h-23.22v14.513h23.22zm0-34.832v-14.513h-23.22v14.513h23.22zm171.253-1.16h-60.955v-37.734h60.955v37.733zM134.09 290.831v37.733H73.136v-37.733h60.955zm278.65-17.416h-34.832V244.39h34.831v29.026zm-84.176 0h-34.831V244.39h34.831v29.026zM134.091 244.39v29.026H99.26V244.39h34.83zm84.175 0v29.026h-34.831V244.39h34.831zm20.318-14.513h34.832v29.026h-34.832v-29.026zM366.3 256h-23.221v-11.61h23.22V256zm-197.377-11.61V256h-23.22v-11.61h23.22zm98.688-87.078h75.468v47.135c0 8.778-4.972 16.696-12.606 20.072l-14.864 6.577a19.527 19.527 0 0 1-14.87.41c-4.964-1.884-11.648-4.418-17.715-6.717-9.242-3.507-15.413-12.8-15.413-23.221v-44.256zm-23.22 0v44.256c0 10.42-6.171 19.714-15.413 23.22l-17.715 6.717a19.527 19.527 0 0 1-14.87-.409l-14.864-6.577c-7.634-3.376-12.606-11.294-12.606-20.072v-47.135h75.468zm156.74 20.318h-26.123v23.221h26.123v30.855a19.51 19.51 0 0 1-13.314-.2c-4.964-1.884-11.648-4.418-17.715-6.717-9.242-3.507-15.413-12.8-15.413-23.221v-44.256h46.442v20.318zm-243.818-20.318v44.256c0 10.42-6.171 19.714-15.413 23.22l-17.715 6.717a19.51 19.51 0 0 1-13.314.2v-30.854h26.123v-23.22H110.87v-20.319h46.442zM322.76 177.63h-34.831v23.221h34.83v-23.22zm-98.689 23.221v-23.22h-34.83v23.22h34.83zm-113.201-66.76h23.22v-23.22h-23.22V99.26h290.26v11.61h-23.22v23.221h23.22v11.61H110.87v-11.61zm168.35-23.22h-11.61v23.22h11.61v-23.22zm49.345 0h-26.123v23.22h26.123v-23.22zm37.734 0h-26.124v23.22H366.3v-23.22zm-121.91 23.22v-23.22h-11.61v23.22h11.61zm-34.83 0v-23.22h-26.124v23.22h26.123zm-37.734 0v-23.22H145.7v23.22h26.124z"/>
</svg>