<?xml version="1.0" encoding="UTF-8" standalone="no"?>
<!DOCTYPE svg PUBLIC "-//W3C//DTD SVG 1.1//EN" "http://www.w3.org/Graphics/SVG/1.1/DTD/svg11.dtd">
<svg width="100%" height="100%" viewBox="0 0 256 256" version="1.1" xmlns="http://www.w3.org/2000/svg" xmlns:xlink="http://www.w3.org/1999/xlink" xml:space="preserve" xmlns:serif="http://www.serif.com/" style="fill-rule:evenodd;clip-rule:evenodd;stroke-linejoin:round;stroke-miterlimit:1.41421;">
    <g id="Layer1">
        <g transform="matrix(0.996997,0,0,1,2.13691,0)">
            <path d="M226.366,20.135L226.448,20.137L226.53,20.14L226.612,20.143L226.693,20.148L226.775,20.153L226.855,20.16L226.936,20.168L227.016,20.176L227.096,20.186L227.176,20.197L227.255,20.208L227.335,20.221L227.413,20.234L227.492,20.249L227.57,20.264L227.648,20.281L227.725,20.298L227.802,20.316L227.879,20.335L227.955,20.356L228.031,20.377L228.106,20.398L228.182,20.421L228.256,20.445L228.331,20.47L228.405,20.495L228.478,20.521L228.551,20.549L228.624,20.577L228.696,20.606L228.768,20.635L228.84,20.666L228.91,20.698L228.981,20.73L229.051,20.763L229.12,20.797L229.19,20.832L229.258,20.867L229.326,20.904L229.394,20.941L229.461,20.979L229.528,21.018L229.594,21.057L229.659,21.097L229.724,21.138L229.789,21.18L229.853,21.223L229.916,21.266L229.979,21.31L230.041,21.355L230.103,21.4L230.164,21.447L230.225,21.493L230.285,21.541L230.344,21.589L230.403,21.638L230.461,21.688L230.519,21.738L230.576,21.79L230.633,21.841L230.688,21.894L230.743,21.947L230.798,22L230.852,22.055L230.905,22.11L230.958,22.165L231.009,22.222L231.061,22.278L231.111,22.336L231.161,22.394L231.21,22.453L231.259,22.512L231.306,22.572L231.354,22.632L231.4,22.693L231.445,22.755L231.49,22.817L231.535,22.88L231.578,22.943L231.621,23.007L231.663,23.071L231.704,23.136L231.744,23.201L231.784,23.267L231.823,23.333L231.861,23.4L231.898,23.468L231.934,23.536L231.97,23.604L232.005,23.673L232.039,23.742L232.072,23.812L232.105,23.882L232.136,23.953L232.167,24.024L232.197,24.096L232.226,24.168L232.254,24.24L232.281,24.313L232.308,24.387L232.333,24.46L232.358,24.534L232.382,24.609L232.405,24.684L232.427,24.759L232.448,24.835L232.468,24.911L232.487,24.987L232.506,25.064L232.523,25.141L232.539,25.219L232.555,25.297L232.569,25.375L232.583,25.453L232.596,25.532L232.607,25.611L232.618,25.691L232.627,25.771L232.636,25.851L232.644,25.931L232.651,26.012L232.656,26.093L232.661,26.174L232.664,26.255L232.667,26.337L232.669,26.419L232.669,26.501L232.669,229.499L232.669,229.581L232.667,229.663L232.664,229.745L232.661,229.826L232.656,229.907L232.651,229.988L232.644,230.069L232.636,230.149L232.627,230.229L232.618,230.309L232.607,230.389L232.596,230.468L232.583,230.547L232.569,230.625L232.555,230.703L232.539,230.781L232.523,230.859L232.506,230.936L232.487,231.013L232.468,231.089L232.448,231.165L232.427,231.241L232.405,231.316L232.382,231.391L232.358,231.466L232.333,231.54L232.308,231.613L232.281,231.687L232.254,231.76L232.226,231.832L232.197,231.904L232.167,231.976L232.136,232.047L232.105,232.118L232.072,232.188L232.039,232.258L232.005,232.327L231.97,232.396L231.934,232.464L231.898,232.532L231.861,232.6L231.823,232.667L231.784,232.733L231.744,232.799L231.704,232.864L231.663,232.929L231.621,232.993L231.578,233.057L231.535,233.12L231.49,233.183L231.445,233.245L231.4,233.307L231.354,233.368L231.306,233.428L231.259,233.488L231.21,233.547L231.161,233.606L231.111,233.664L231.061,233.722L231.009,233.778L230.958,233.835L230.905,233.89L230.852,233.945L230.798,234L230.743,234.053L230.688,234.106L230.633,234.159L230.576,234.21L230.519,234.262L230.461,234.312L230.403,234.362L230.344,234.411L230.285,234.459L230.225,234.507L230.164,234.553L230.103,234.6L230.041,234.645L229.979,234.69L229.916,234.734L229.853,234.777L229.789,234.82L229.724,234.862L229.659,234.903L229.594,234.943L229.528,234.982L229.461,235.021L229.394,235.059L229.326,235.096L229.258,235.133L229.19,235.168L229.12,235.203L229.051,235.237L228.981,235.27L228.91,235.302L228.84,235.334L228.768,235.365L228.696,235.394L228.624,235.423L228.551,235.451L228.478,235.479L228.405,235.505L228.331,235.53L228.256,235.555L228.182,235.579L228.106,235.602L228.031,235.623L227.955,235.644L227.879,235.665L227.802,235.684L227.725,235.702L227.648,235.719L227.57,235.736L227.492,235.751L227.413,235.766L227.335,235.779L227.255,235.792L227.176,235.803L227.096,235.814L227.016,235.824L226.936,235.832L226.855,235.84L226.775,235.847L226.693,235.852L226.612,235.857L226.53,235.86L226.448,235.863L226.366,235.865L226.284,235.865L26.201,235.865L26.118,235.865L26.036,235.863L25.954,235.86L25.872,235.857L25.791,235.852L25.71,235.847L25.629,235.84L25.548,235.832L25.468,235.824L25.388,235.814L25.308,235.803L25.229,235.792L25.15,235.779L25.071,235.766L24.993,235.751L24.915,235.736L24.837,235.719L24.759,235.702L24.682,235.684L24.606,235.665L24.529,235.644L24.454,235.623L24.378,235.602L24.303,235.579L24.228,235.555L24.154,235.53L24.08,235.505L24.006,235.479L23.933,235.451L23.86,235.423L23.788,235.394L23.716,235.365L23.645,235.334L23.574,235.302L23.503,235.27L23.433,235.237L23.364,235.203L23.295,235.168L23.226,235.133L23.158,235.096L23.091,235.059L23.023,235.021L22.957,234.982L22.891,234.943L22.825,234.903L22.76,234.862L22.696,234.82L22.632,234.777L22.568,234.734L22.505,234.69L22.443,234.645L22.381,234.6L22.32,234.553L22.259,234.507L22.199,234.459L22.14,234.411L22.081,234.362L22.023,234.312L21.965,234.262L21.908,234.21L21.852,234.159L21.796,234.106L21.741,234.053L21.686,234L21.633,233.945L21.579,233.89L21.527,233.835L21.475,233.778L21.424,233.722L21.373,233.664L21.323,233.606L21.274,233.547L21.226,233.488L21.178,233.428L21.131,233.368L21.085,233.307L21.039,233.245L20.994,233.183L20.95,233.12L20.906,233.057L20.864,232.993L20.822,232.929L20.781,232.864L20.74,232.799L20.701,232.733L20.662,232.667L20.624,232.6L20.586,232.532L20.55,232.464L20.514,232.396L20.479,232.327L20.445,232.258L20.412,232.188L20.38,232.118L20.348,232.047L20.317,231.976L20.287,231.904L20.258,231.832L20.23,231.76L20.203,231.687L20.177,231.613L20.151,231.54L20.126,231.466L20.103,231.391L20.08,231.316L20.058,231.241L20.037,231.165L20.016,231.089L19.997,231.013L19.979,230.936L19.961,230.859L19.945,230.781L19.93,230.703L19.915,230.625L19.901,230.547L19.889,230.468L19.877,230.389L19.867,230.309L19.857,230.229L19.848,230.149L19.841,230.069L19.834,229.988L19.828,229.907L19.824,229.826L19.82,229.745L19.817,229.663L19.816,229.581L19.815,229.499L19.815,26.501L19.816,26.419L19.817,26.337L19.82,26.255L19.824,26.174L19.828,26.093L19.834,26.012L19.841,25.931L19.848,25.851L19.857,25.771L19.867,25.691L19.877,25.611L19.889,25.532L19.901,25.453L19.915,25.375L19.93,25.297L19.945,25.219L19.961,25.141L19.979,25.064L19.997,24.987L20.016,24.911L20.037,24.835L20.058,24.759L20.08,24.684L20.103,24.609L20.126,24.534L20.151,24.46L20.177,24.387L20.203,24.313L20.23,24.24L20.258,24.168L20.287,24.096L20.317,24.024L20.348,23.953L20.38,23.882L20.412,23.812L20.445,23.742L20.479,23.673L20.514,23.604L20.55,23.536L20.586,23.468L20.624,23.4L20.662,23.333L20.701,23.267L20.74,23.201L20.781,23.136L20.822,23.071L20.864,23.007L20.906,22.943L20.95,22.88L20.994,22.817L21.039,22.755L21.085,22.693L21.131,22.632L21.178,22.572L21.226,22.512L21.274,22.453L21.323,22.394L21.373,22.336L21.424,22.278L21.475,22.222L21.527,22.165L21.579,22.11L21.633,22.055L21.686,22L21.741,21.947L21.796,21.894L21.852,21.841L21.908,21.79L21.965,21.738L22.023,21.688L22.081,21.638L22.14,21.589L22.199,21.541L22.259,21.493L22.32,21.447L22.381,21.4L22.443,21.355L22.505,21.31L22.568,21.266L22.632,21.223L22.696,21.18L22.76,21.138L22.825,21.097L22.891,21.057L22.957,21.018L23.023,20.979L23.091,20.941L23.158,20.904L23.226,20.867L23.295,20.832L23.364,20.797L23.433,20.763L23.503,20.73L23.574,20.698L23.645,20.666L23.716,20.635L23.788,20.606L23.86,20.577L23.933,20.549L24.006,20.521L24.08,20.495L24.154,20.47L24.228,20.445L24.303,20.421L24.378,20.398L24.454,20.377L24.529,20.356L24.606,20.335L24.682,20.316L24.759,20.298L24.837,20.281L24.915,20.264L24.993,20.249L25.071,20.234L25.15,20.221L25.229,20.208L25.308,20.197L25.388,20.186L25.468,20.176L25.548,20.168L25.629,20.16L25.71,20.153L25.791,20.148L25.872,20.143L25.954,20.14L26.036,20.137L26.118,20.135L26.201,20.135L226.284,20.135L226.366,20.135ZM29.657,29.947L29.657,226.053L222.828,226.053L222.828,29.947L29.657,29.947Z" style="fill:#1c1c1c;"/>
        </g>
        <rect x="41.228" y="39.95" width="173.223" height="178.657" style="fill:#1c1c1c;"/>
    </g>
    <g id="body" transform="matrix(1,0,0,1,-2,6.5)">
        <path id="color" d="M183,184L77,184L77,172L183,172L183,184ZM172,159C180.788,159 181,167.986 181,168L79,168C79,168 79.205,159 88,159L172,159ZM92,155L92,140C89.872,134.197 84,134 84,134L84,126L93,126C97.424,126 99.996,120.01 100,120L160,120C160.008,120.019 162.58,126 167,126L176,126L176,134C176,134 170.128,134.197 168,140L168,155L92,155ZM135,151L135,143L125,143L125,151L135,151ZM118,143L110,143L110,151L118,151L118,143ZM103,143L95,143L95,151L103,151L103,143ZM150,151L150,143L142,143L142,151L150,151ZM165,151L165,143L157,143L157,151L165,151ZM92,122L84,122L84,110L92,114L92,122ZM176,122L168,122L168,114L176,110L176,122ZM143,76L143,93L164,93C170.081,99.832 176,99 176,99L176,105C160.093,105 160,113.986 160,114L100,114C100,114 99.919,105 84,105L84,99C84,99 89.919,99.832 96,93L117,93L117,76L143,76ZM87,93L70,93L70,68C71.062,62.693 78.987,59.006 79,59L104,59L104,76L87,92L87,93ZM181,59C181.022,59.01 188.939,62.696 190,68L190,93L173,93L173,92L156,76L156,59L181,59ZM84,81L76,81L76,89L84,89L84,81ZM184,89L184,81L176,81L176,89L184,89ZM84,68L76,68L76,76L84,76L84,68ZM184,76L184,68L176,68L176,76L184,76Z" style="fill:#757dff;"/>
    </g>
</svg>